<svg
  xmlns="http://www.w3.org/2000/svg"
  xmlns:xlink="http://www.w3.org/1999/xlink"
  width="320"
  height="420"
  viewBox="0 -50 320 320"
>
  <defs>
    <radialGradient
      id="a"
      cx="50%"
      cy="3.179%"
      r="84.591%"
      fx="50%"
      fy="3.179%"
      gradientTransform="matrix(0 1 -.698 0 .522 -.468)"
    >
      <stop offset="0%" stop-color="#C496C1" />
      <stop offset="100%" stop-color="#26002A" />
    </radialGradient>
    <radialGradient
      id="b"
      cx="50%"
      cy="50%"
      r="50.746%"
      fx="50%"
      fy="50%"
      gradientTransform="matrix(0 .985 -1 0 1 .007)"
    >
      <stop offset="0%" stop-color="#FFF" />
      <stop offset="53.663%" stop-color="#FFF" stop-opacity=".689" />
      <stop offset="100%" stop-color="#570074" stop-opacity="0" />
    </radialGradient>
    <radialGradient
      id="e"
      cx="50%"
      cy="60.344%"
      r="50.403%"
      fx="50%"
      fy="60.344%"
      gradientTransform="matrix(0 .787 -.998 0 1.102 .21)"
    >
      <stop offset="0%" stop-color="#FAE7FC" />
      <stop offset="65.223%" stop-color="#E2C5E8" />
      <stop offset="96.305%" stop-color="#A36DB3" />
      <stop offset="100%" stop-color="#F8E5F5" />
    </radialGradient>
    <radialGradient
      id="f"
      cx="51.991%"
      cy="42.088%"
      r="51.039%"
      fx="51.991%"
      fy="42.088%"
      gradientTransform="matrix(.041 .786 -.92 .03 .886 0)"
    >
      <stop offset="0%" stop-color="#FFF" />
      <stop offset="53.732%" stop-color="#FFF" />
      <stop offset="100%" stop-color="#FFF" stop-opacity="0" />
    </radialGradient>
    <radialGradient
      id="g"
      cx="50%"
      cy="76.976%"
      r="84.828%"
      fx="50%"
      fy="76.976%"
      gradientTransform="matrix(.05 .786 -1.027 .041 1.265 .345)"
    >
      <stop offset="0%" stop-color="#FFF" stop-opacity="0" />
      <stop offset="60.946%" stop-color="#FFF" stop-opacity="0" />
      <stop offset="73.801%" stop-color="#FFF" stop-opacity=".667" />
      <stop offset="85.921%" stop-color="#FFF" stop-opacity=".74" />
      <stop offset="100%" stop-color="#FFF" stop-opacity="0" />
    </radialGradient>
    <radialGradient
      id="i"
      cx="50%"
      cy="52.015%"
      r="66.195%"
      fx="50%"
      fy="52.015%"
      gradientTransform="matrix(-.027 -.786 .75 -.016 .124 .921)"
    >
      <stop offset="0%" />
      <stop offset="96.315%" stop-color="#252525" />
      <stop offset="100%" stop-color="#FFF" stop-opacity="0" />
    </radialGradient>
    <radialGradient
      id="j"
      cx="56.473%"
      cy="56.912%"
      r="70.121%"
      fx="56.473%"
      fy="56.912%"
      gradientTransform="matrix(.173 .774 -.72 .1 .877 .075)"
    >
      <stop offset="0%" stop-color="#FFF" stop-opacity="0" />
      <stop offset="90.314%" stop-color="#FFF" stop-opacity=".452" />
      <stop offset="100%" stop-color="#FFF" />
    </radialGradient>
    <radialGradient
      id="k"
      cx="62.514%"
      cy="13.442%"
      r="16.49%"
      fx="62.514%"
      fy="13.442%"
      gradientTransform="matrix(0 .786 -1 0 .76 -.357)"
    >
      <stop offset=".016%" stop-color="#FFF" />
      <stop offset="50.899%" stop-color="#FFF" />
      <stop offset="100%" stop-opacity=".5" />
    </radialGradient>
    <radialGradient
      id="l"
      cx="50%"
      cy="20.401%"
      r="11.057%"
      fx="50%"
      fy="20.401%"
      gradientTransform="matrix(0 .786 -1 0 .704 -.19)"
    >
      <stop offset=".016%" stop-color="#FFF" />
      <stop offset="31.917%" stop-color="#FFF" />
      <stop offset="100%" stop-color="#FFF" stop-opacity="0" />
    </radialGradient>
    <radialGradient
      id="m"
      cx="58.262%"
      cy="126.981%"
      r="45.782%"
      fx="58.262%"
      fy="126.981%"
      gradientTransform="matrix(-.02 .786 -1.566 -.024 2.583 .843)"
    >
      <stop offset="0%" stop-opacity=".5" />
      <stop offset="83.099%" stop-color="#FFF" stop-opacity=".5" />
      <stop offset="100%" stop-opacity="0" />
    </radialGradient>
    <radialGradient
      id="o"
      cx="58.782%"
      cy="54.48%"
      r="70.488%"
      fx="58.782%"
      fy="54.48%"
      gradientTransform="matrix(.107 .782 -.78 .066 .95 .05)"
    >
      <stop offset="0%" stop-color="#FFF" stop-opacity="0" />
      <stop offset="89.579%" stop-color="#FFF" stop-opacity=".433" />
      <stop offset="100%" stop-color="#FFF" />
    </radialGradient>
    <radialGradient
      id="p"
      cx="38.158%"
      cy="14.265%"
      r="16.484%"
      fx="38.158%"
      fy="14.265%"
      gradientTransform="matrix(0 .786 -1 0 .524 -.157)"
    >
      <stop offset=".016%" stop-color="#FFF" />
      <stop offset="50.899%" stop-color="#FFF" />
      <stop offset="100%" stop-opacity=".5" />
    </radialGradient>
    <radialGradient
      id="q"
      cx="54.491%"
      cy="23.223%"
      r="11.051%"
      fx="54.491%"
      fy="23.223%"
      gradientTransform="matrix(0 .786 -1 0 .777 -.196)"
    >
      <stop offset=".016%" stop-color="#FFF" />
      <stop offset="31.917%" stop-color="#FFF" />
      <stop offset="100%" stop-color="#FFF" stop-opacity="0" />
    </radialGradient>
    <radialGradient
      id="r"
      cx="58.825%"
      cy="126.573%"
      r="45.828%"
      fx="58.825%"
      fy="126.573%"
      gradientTransform="matrix(-.02 .786 -1.566 -.024 2.582 .834)"
    >
      <stop offset="0%" stop-opacity=".5" />
      <stop offset="82.124%" stop-color="#FFF" stop-opacity=".5" />
      <stop offset="100%" stop-opacity="0" />
    </radialGradient>
    <radialGradient id="s" cx="50%" cy="50%" r="50%" fx="50%" fy="50%">
      <stop offset="0%" stop-color="#FFF" />
      <stop offset="80.868%" stop-color="#FFF" />
      <stop offset="100%" stop-color="#FFF" stop-opacity="0" />
    </radialGradient>
    <radialGradient id="t" cx="50%" cy="50%" r="50%" fx="50%" fy="50%">
      <stop offset="0%" stop-color="#FFF" />
      <stop offset="69.884%" stop-color="#FFF" />
      <stop offset="100%" stop-color="#FFF" stop-opacity="0" />
    </radialGradient>
    <radialGradient id="u" cx="50%" cy="50%" r="50%" fx="50%" fy="50%">
      <stop offset="0%" stop-color="#FFF" />
      <stop offset="32.326%" stop-color="#FFF" />
      <stop offset="100%" stop-color="#FFF" stop-opacity="0" />
    </radialGradient>
    <radialGradient id="v" cx="50%" cy="50%" r="50%" fx="50%" fy="50%">
      <stop offset="0%" stop-color="#FFF" />
      <stop offset="61.541%" stop-color="#FFF" />
      <stop offset="100%" stop-color="#FFF" stop-opacity="0" />
    </radialGradient>
    <radialGradient id="w" cx="50%" cy="50%" r="50%" fx="50%" fy="50%">
      <stop offset="0%" stop-color="#FFF" />
      <stop offset="12.729%" stop-color="#FFF" />
      <stop offset="100%" stop-color="#FFF" stop-opacity="0" />
    </radialGradient>
    <path
      id="d"
      d="M126.618 264.371c57.437 0 104-47.234 104-105.5 0-32.997-15.082-61.475-38.357-81.442-4.1-3.517-13.646-12.991-10.643-30.391-5.566 2.05-5.566 13.801-10.988 13.163-11.682-1.374-10.379-25.505-19.918-33.044-.931 16.431-19.441 12.642-18.645-3.175.542-10.771 4.717-18.733 12.526-23.886-9.225-.6-17.045 1.622-23.46 6.666-11.039 8.68-15.916 18.18-18.757 27.27-1.662 5.318-4.553 22.452-11.871 10.896-6.602 8.901-1.521 15.273-6.602 17.723-2.77 1.336-4.802-7.335-13.285-7.335 1.876 11.775-8.042 22.113-10.415 22.113-2.373 0 0-4.322-4.855-6.25 0 9.704-5.218 15.882-6.782 17.681-16.18 18.624-25.948 43.25-25.948 70.011 0 58.266 46.562 105.5 104 105.5Z"
    />
    <path
      id="h"
      d="M71.275 205.196a54.969 54.969 0 0 1 9.606.221c6.545-4.718 10.472-13.334 10.472-24.023 0-15.464-9.318-28-20.813-28-11.494 0-20.812 12.536-20.812 28 0 11.874 5.283 18.652 13.064 24.953 3.334-.716 5.497-1.104 8.483-1.151Z"
    />
    <path
      id="n"
      d="M182.275 206.196a54.969 54.969 0 0 1 9.606.221c6.545-4.718 10.472-13.334 10.472-24.023 0-15.464-9.318-28-20.813-28-11.494 0-20.812 12.536-20.812 28 0 11.874 5.283 18.652 13.064 24.953 3.334-.716 5.497-1.104 8.483-1.151Z"
    />
    <filter
      id="c"
      width="176.1%"
      height="175%"
      x="-38.1%"
      y="-37.5%"
      filterUnits="objectBoundingBox"
    >
      <feGaussianBlur in="SourceGraphic" stdDeviation="32" />
    </filter>
  </defs>
  <g fill="none" fill-rule="evenodd">
    <circle cx="160" cy="160" r="160" fill="url(#a)" />
    <g transform="translate(30 86)">
      <circle cx="22" cy="5" r="5" fill="url(#s)" />
      <circle cx="3" cy="113" r="3" fill="url(#t)" />
      <circle cx="30" cy="169" r="2" fill="url(#u)" />
      <circle cx="58" cy="192" r="2" fill="url(#v)" />
      <circle cx="254" cy="108" r="2" fill="url(#w)" />
      <circle cx="242.5" cy="8.5" r="4.5" fill="url(#s)" />
    </g>
    <g id="wisp" transform="translate(32.382 1.629)">
      <ellipse
        cx="126.118"
        cy="162.371"
        fill="url(#b)"
        filter="url(#c)"
        rx="126.118"
        ry="128"
      />
      <use xlink:href="#d" fill="url(#e)" />
      <use xlink:href="#d" fill="url(#f)" />
      <use xlink:href="#d" fill="url(#g)" />
      <g transform="rotate(-10 70.54 179.87)">
        <use xlink:href="#h" fill="url(#i)" />
        <use xlink:href="#h" fill="url(#j)" />
        <use xlink:href="#h" fill="url(#k)" />
        <use xlink:href="#h" fill="url(#l)" />
        <use xlink:href="#h" fill="url(#m)" />
      </g>
      <g transform="scale(-1 1) rotate(-10 0 2255.887)">
        <use xlink:href="#n" fill="url(#i)" />
        <use xlink:href="#n" fill="url(#o)" />
        <use xlink:href="#n" fill="url(#p)" fill-opacity=".93" />
        <use xlink:href="#n" fill="url(#q)" />
        <use xlink:href="#n" fill="url(#r)" />
      </g>
    </g>
  </g>
</svg>
